<svg xmlns="http://www.w3.org/2000/svg" xmlns:xlink="http://www.w3.org/1999/xlink" id="Layer_1" x="0px" y="0px" width="800.5px" height="344.3px" viewBox="0 0 800.5 344.3" style="enable-background:new 0 0 800.5 344.3;" xml:space="preserve"><style type="text/css">	.st0{display:none;fill:#808184;}	.st1{display:none;fill:#EC1C24;}	.st2{fill:#64C3B4;}	.st3{fill:#5E6770;}</style><g>	<polygon class="st0" points="414.1,67.5 416,67.5 416,70.1 414.1,70.1 414.1,67.5  "></polygon>	<polygon class="st0" points="409.9,67.5 411.8,67.5 411.8,70.1 409.9,70.1 409.9,67.5  "></polygon>	<polygon class="st0" points="418.3,67.5 420.2,67.5 420.2,70.1 418.3,70.1 418.3,67.5  "></polygon>	<polygon class="st0" points="422.5,67.5 424.4,67.5 424.4,70.1 422.5,70.1 422.5,67.5  "></polygon>	<polygon class="st0" points="414.1,71.8 416,71.8 416,74.3 414.1,74.3 414.1,71.8  "></polygon>	<polygon class="st0" points="409.9,71.8 411.8,71.8 411.8,74.3 409.9,74.3 409.9,71.8  "></polygon>	<polygon class="st0" points="418.3,71.8 420.2,71.8 420.2,74.3 418.3,74.3 418.3,71.8  "></polygon>	<polygon class="st0" points="422.5,71.8 424.4,71.8 424.4,74.3 422.5,74.3 422.5,71.8  "></polygon>	<polygon class="st0" points="414.1,63.2 416,63.2 416,65.8 414.1,65.8 414.1,63.2  "></polygon>	<polygon class="st1" points="409.9,59 411.8,59 411.8,65.8 409.9,65.8 409.9,59  "></polygon>	<polygon class="st0" points="418.3,63.2 420.2,63.2 420.2,65.8 418.3,65.8 418.3,63.2  "></polygon>	<polygon class="st0" points="414.1,59 416,59 416,61.6 414.1,61.6 414.1,59  "></polygon>	<polygon class="st0" points="418.3,59 420.2,59 420.2,61.6 418.3,61.6 418.3,59  "></polygon>	<polygon class="st1" points="414.1,53.7 416,53.7 416,57.3 414.1,57.3 414.1,53.7  "></polygon>	<polygon class="st0" points="414.1,76 416,76 416,79.7 414.1,79.7 414.1,76  "></polygon>	<polygon class="st0" points="409.9,76 411.8,76 411.8,80.2 409.9,80.2 409.9,76  "></polygon>	<polygon class="st0" points="418.3,76 420.2,76 420.2,79.2 418.3,79.2 418.3,76  "></polygon>	<polygon class="st1" points="405.7,67.5 407.6,67.5 407.6,81 405.7,81 405.7,67.5  "></polygon>	<g>		<polygon class="st0" points="422.5,76 424.4,76 424.4,78.7 422.5,78.7 422.5,76   "></polygon>	</g>	<path class="st1" d="M424.8,82.8c-0.3,0.3-0.6,0-0.9,0.2c0,0,0-0.2-0.1-0.1c-0.3,0.3-0.7,0.1-1.1-0.1v-0.1c-0.1,0-0.2,0.1-0.2,0.1  v-0.1c0,0.1-0.1,0-0.2,0.1l-0.1-0.2v0.1c-0.1,0.3-0.3,0-0.4,0.1v-0.1c-0.2,0.2-0.5,0.1-0.8,0.2v-0.2c0,0.1-0.1,0.2-0.2,0.2  c0-0.1-0.1,0.1-0.2,0l0,0c-0.1,0.1-0.1-0.1-0.1,0.1v-0.1c0,0.2-0.1-0.1-0.1,0l0,0h-0.1l0,0c-0.1,0-0.2-0.1-0.2,0.1  c0-0.1,0.1,0,0-0.2c-0.4,0.1-0.7,0.1-1.1,0.1l-0.1-0.1l-0.2,0.1v-0.1c-0.1-0.1-0.1,0.2-0.1,0.1v-0.1c-0.1,0.1-0.1,0.1-0.2,0.1v-0.1  c-0.1,0.1-0.1,0-0.2,0.1v-0.1c-0.1-0.1,0,0.2-0.1,0.1v-0.1c-0.1,0.2-0.2,0.1-0.3,0.2l0,0h-0.3c0,0,0-0.2-0.1-0.2  c0,0.2-0.2,0.1-0.1,0.3c-0.1,0-0.2-0.1-0.3,0c0-0.1,0-0.2,0-0.2l-0.1-0.1c0-0.1,0.1,0,0-0.1l-0.2,0.1c-0.1,0.1-0.1,0.3-0.2,0.3  v-0.2l-0.1,0.3c0,0,0-0.1-0.1-0.1v0.1c0,0-0.1,0-0.2-0.1V83l-0.1,0.1l0,0c0,0-0.1,0.1-0.1,0.2v-0.1l-0.2,0.1v-0.1l-0.3,0.2  c0,0.1,0-0.1,0-0.1c-0.1-0.1-0.3,0.2-0.4,0v0.1c-0.1,0-0.1-0.1-0.1-0.1c0-0.1,0,0-0.1,0l0,0c-0.1,0.1-0.3,0.2-0.4,0.1l-0.1,0.2  v-0.1c0-0.1-0.1,0-0.1-0.1c-0.1,0.1,0.2-0.1,0.2,0c0-0.1-0.1,0.2-0.1,0c-0.1,0-0.1,0.1-0.2,0v-0.1l-0.1,0.1l0,0c0,0.1-0.1,0,0,0.1  c0-0.1-0.1,0.1-0.1-0.1v-0.1l-0.1,0.2v-0.1c0,0.2-0.1,0-0.1,0.2c-0.1-0.1-0.2,0-0.2-0.1c-0.1,0.1-0.1,0.1-0.2,0.1v-0.1  c0-0.1-0.1,0-0.1,0s-0.1-0.1-0.2-0.2v0.2c-0.1-0.2-0.2,0.1-0.2,0c0,0,0.1-0.1,0-0.2c-0.1-0.2-0.1,0.2-0.2,0.1v0.2  c-0.1-0.1-0.1,0.1-0.1-0.1c0,0.1-0.1,0-0.1,0.1c-0.2-0.1-0.3,0.1-0.5-0.2l-0.1,0.1c0,0.1,0-0.1,0.1,0v0.1c0,0-0.1,0-0.1-0.2  c-0.1-0.1-0.1,0.3-0.2,0.2l-0.1-0.1l-0.1,0.1c-0.1,0-0.1-0.1-0.1-0.3l-0.1,0.1l-0.1-0.1c0.1,0.1,0,0.1,0,0.1l0,0H411l0.1,0.1  l-0.1,0.1c0-0.1-0.1-0.1-0.1-0.1v0.1c0-0.1-0.1,0,0-0.1h0.1c0,0,0-0.1-0.1-0.1c0,0.1,0,0.2,0,0.2v-0.1h-0.1v0.1l0,0  c0,0.1-0.1,0.1-0.1,0.2l-0.1-0.1l0,0c-0.1,0-0.1,0-0.1,0.1l0,0l-0.1,0.1c-0.1-0.1-0.1-0.4-0.1-0.2c-0.1,0-0.1,0.2,0,0.3  c-0.1,0-0.2,0.1-0.3,0v0.1c-0.2,0-0.3,0.2-0.5,0v-0.2c0,0.1-0.1-0.1,0,0.1l0.1,0.2c-0.1,0.1-0.2,0.1-0.3,0v0.1  c0-0.1-0.1-0.1-0.1-0.1v0.1l-0.1-0.1c0,0,0,0.2-0.1,0.1v-0.1c0,0.1-0.1,0.2-0.2,0.2l-0.1-0.1v0.1l-0.2-0.2  c-0.1,0.3-0.3,0.4-0.5,0.4v-0.1c-0.1,0,0,0.1,0,0.1l-0.1-0.2c-0.1,0-0.1,0.1-0.1,0.2s0-0.1,0,0c0,0-0.1,0-0.1,0.1l-0.1-0.2v0.1  c-0.1-0.1,0-0.3-0.1-0.5l0,0c-0.1-0.1,0.1-0.2,0-0.2c0,0.1,0,0.3,0,0.3c-0.1,0.1,0,0.3-0.1,0.3c0-0.1,0.1,0,0-0.1s-0.1,0.1-0.1,0.1  v0.2l-0.1-0.1c0,0.1,0,0.2,0,0.2c0,0.2-0.1,0-0.1,0.1c-0.1-0.1,0-0.3-0.1-0.3c0,0.1,0,0.2,0,0.3l-0.1-0.2c-0.1-0.1,0,0.2-0.1,0v0.1  l-0.1-0.1c0,0-0.1,0.2-0.1,0c0,0-0.1,0,0,0.1s0-0.1,0.1,0c-0.1-0.1-0.1,0-0.1,0.1v-0.1v0.1v-0.1v0.1c-0.1,0.1-0.1-0.2-0.1-0.1v-0.1  h-0.1V85c0,0.1-0.1-0.1-0.1,0v-0.1c0,0-0.1-0.1-0.2-0.1V85l-0.1-0.1v0.2l-0.2-0.2v-0.2l0,0c0-0.1-0.1-0.1-0.1-0.2l-0.1,0.1  c0.2,0.2,0,0.3,0.1,0.5c-0.1,0.1-0.3-0.4-0.2-0.1c0,0,0.1,0.2,0.1,0.1c-0.1,0,0,0.2-0.1,0.2c0-0.1-0.1-0.2-0.1-0.3  c0,0.1,0.1,0,0.1,0c-0.1-0.1-0.1-0.2-0.1-0.2s-0.1,0.1,0,0.2c0,0.1,0.1,0,0.1,0.1c-0.1,0.1-0.1-0.1-0.1,0.1l0.1,0.1v0.1v-0.1  c-0.1,0,0,0.1-0.1,0.2l-0.1-0.1c0-0.1,0.1,0,0-0.2l-0.1,0.1v-0.1c0,0-0.2-0.2-0.2-0.1l0.1,0.1l-0.1,0.2c-0.1-0.1-0.1,0-0.1-0.1  c0.1,0.1,0.2,0,0.2-0.1c-0.1-0.1,0.1,0,0-0.2c-0.1,0-0.2-0.1-0.2-0.2v0.1l0.1,0.2c-0.1,0-0.1,0.1-0.1,0.2l-0.1-0.2l-0.3,0.1  c0.1,0.1-0.1,0.1,0.1,0.2c0.1,0,0.2,0.1,0.2,0.2l-0.1-0.1c0,0.1-0.1-0.1-0.1,0.1c0-0.1-0.1-0.2-0.2-0.3c0,0.1-0.1-0.1-0.1,0  l-0.1,0.3c-0.2,0-0.2,0.2-0.2,0.2c-0.1,0-0.2-0.2-0.2-0.1c0,0,0.2,0.1,0,0.1l0,0c0,0-0.2,0-0.1,0.2l-0.1-0.1V86l-0.1-0.1  c-0.1,0-0.1,0.1-0.1,0.2h0.1c0,0.1-0.1,0.1-0.1,0.2h-0.1v0.1c-0.1,0-0.2,0-0.1,0l-0.2-0.2l0.2,0.1c0.1,0,0.1-0.1,0-0.1v0.1  c-0.1,0-0.1-0.1-0.2-0.2v0.1V86l0.1,0.1c-0.1-0.1-0.1-0.2,0-0.2c0.2,0.1,0-0.2,0.2-0.2l0.1,0.3h0.1c0-0.1-0.1-0.2-0.1-0.3l0.1,0.1  c0-0.1-0.1-0.2,0-0.2l0.4-0.2l0.1,0.1c-0.1-0.2,0.1-0.2,0.2-0.3c0.2,0,0.2-0.2,0.4-0.1l0.6-0.4v0.1c0-0.1,0.1,0.1,0.1,0  c-0.1-0.1,0-0.2,0-0.2c0.1,0,0.2-0.1,0.3-0.3v0.1c0-0.2,0.2-0.1,0.3-0.1l0.1,0.1c0-0.2,0.1-0.2,0.1-0.3h0.3  c0.2-0.3,0.5-0.2,0.8-0.5v0.1c0.2-0.3,0.6-0.2,0.8-0.4v0.2c0.1,0,0.2-0.1,0.1-0.2c0.1,0,0.2-0.1,0.2,0c0.1,0,0.1-0.1,0.1-0.1h0.4  l0,0v0.1c0-0.1,0.2,0,0.1-0.2c0.2,0.1,0.3-0.2,0.5,0V83c0.1,0,0.3,0.1,0.4-0.1V83v-0.1c0.2-0.2,0.5,0,0.7,0  c0.3-0.2,0.7-0.1,1.1-0.2l0,0c0.1-0.2,0.3,0.1,0.4-0.1l0.1,0.1c0.1-0.1,0.3,0.1,0.4-0.1l0,0c0.1,0.1,0.2-0.1,0.4,0v0.1  c0.1,0.1,0.1-0.2,0.2,0v-0.1c0.3,0,0.6-0.1,1-0.2c0.2,0.1,0,0.4,0.2,0.2l0,0c0.1-0.1,0.1,0.2,0.2,0.1c0-0.1,0-0.1,0-0.2  c0.1,0.1,0.2,0.2,0.3,0.1v0.1c0.1-0.2,0.3-0.1,0.4-0.3l2.1-0.3c0.7,0,1.4-0.1,2.1,0c0.2,0.2,0.2,0.2,0.4,0.1v0.1  c0-0.1,0.1,0,0.1-0.1h0.8v0.1l0.1-0.1l0,0v-0.1c0.7-0.1,1.3,0.2,2,0.2c0.2,0.1,0.4,0,0.5,0c0.5,0.2,0.9,0.4,1.5,0.3  C425.1,82.3,425,82.7,424.8,82.8L424.8,82.8L424.8,82.8z"></path>	<path class="st1" d="M406.2,85.5C406.3,85.5,406.3,85.4,406.2,85.5C406.3,85.4,406.3,85.6,406.2,85.5L406.2,85.5L406.2,85.5z"></path>	<polygon class="st1" points="406.5,85.3 406.6,85.2 406.6,85.3 406.5,85.3  "></polygon>	<polygon class="st1" points="412.9,83.6 412.9,83.7 412.9,83.6 412.9,83.6  "></polygon>	<path class="st1" d="M415.9,83.4C415.9,83.3,415.9,83.4,415.9,83.4L415.9,83.4L415.9,83.4L415.9,83.4z"></path>	<polygon class="st1" points="417.4,83 417.4,83 417.4,82.9 417.4,83  "></polygon>	<path class="st1" d="M318.8,58.3c0.1,0.1,0.2,0.2,0.4,0.2c0.1,0.1,0.3,0.1,0.4,0.1c0.2,0,0.3,0,0.4-0.1s0.3-0.1,0.4-0.2  s0.2-0.2,0.2-0.4c0.1-0.1,0.1-0.3,0.1-0.4c0-0.3-0.1-0.6-0.3-0.8c-0.2-0.2-0.5-0.3-0.8-0.3s-0.6,0.1-0.8,0.3  c-0.2,0.2-0.3,0.5-0.3,0.8c0,0.2,0,0.3,0.1,0.4C318.7,58,318.7,58.1,318.8,58.3L318.8,58.3z"></path>	<path class="st1" d="M321.7,58.3c0.1,0.1,0.2,0.2,0.4,0.2c0.1,0.1,0.3,0.1,0.4,0.1c0.2,0,0.3,0,0.4-0.1s0.3-0.1,0.4-0.2  s0.2-0.2,0.2-0.4c0.1-0.1,0.1-0.3,0.1-0.4c0-0.3-0.1-0.6-0.3-0.8c-0.2-0.2-0.5-0.3-0.8-0.3s-0.6,0.1-0.8,0.3  c-0.2,0.2-0.3,0.5-0.3,0.8c0,0.2,0,0.3,0.1,0.4C321.6,58,321.6,58.1,321.7,58.3L321.7,58.3z"></path>	<path class="st1" d="M288.1,69.4c-0.1-0.1-0.2-0.2-0.3-0.2c-0.1-0.1-0.3-0.1-0.4-0.1c-0.3,0-0.6,0.1-0.8,0.3  c-0.2,0.2-0.3,0.5-0.3,0.8c0,0.1,0,0.3,0.1,0.4s0.1,0.2,0.2,0.3c0.1,0.1,0.2,0.2,0.3,0.2c0.1,0.1,0.3,0.1,0.4,0.1  c0.2,0,0.3,0,0.4-0.1s0.2-0.1,0.3-0.2c0.1-0.1,0.2-0.2,0.2-0.3c0.1-0.1,0.1-0.3,0.1-0.4c0-0.2,0-0.3-0.1-0.4  C288.3,69.6,288.2,69.5,288.1,69.4L288.1,69.4z"></path>	<path class="st1" d="M291.2,69.4c-0.1-0.1-0.2-0.2-0.3-0.2c-0.1-0.1-0.3-0.1-0.4-0.1c-0.3,0-0.6,0.1-0.8,0.3  c-0.2,0.2-0.3,0.5-0.3,0.8c0,0.1,0,0.3,0.1,0.4s0.1,0.2,0.2,0.3c0.1,0.1,0.2,0.2,0.3,0.2c0.1,0.1,0.3,0.1,0.4,0.1  c0.2,0,0.3,0,0.4-0.1s0.2-0.1,0.3-0.2c0.1-0.1,0.2-0.2,0.2-0.3c0.1-0.1,0.1-0.3,0.1-0.4c0-0.2,0-0.3-0.1-0.4  C291.3,69.6,291.3,69.5,291.2,69.4L291.2,69.4z"></path>	<path class="st1" d="M314.7,63.2c-0.2,0.3-0.4,0.6-0.7,0.9c-0.3,0.3-0.6,0.5-1,0.7s-0.8,0.4-1.3,0.5c-0.2-0.3-0.4-0.6-0.6-0.9  c-0.3-0.3-0.6-0.6-0.9-1c-0.3-0.3-0.7-0.6-1-0.9s-0.7-0.6-1-0.8c0.5-0.1,1-0.1,1.6-0.2c0.6,0,1.2-0.1,1.8-0.1c0.4,0,0.8,0,1.1,0  c0.4,0,0.7,0.1,1,0.1c0.3,0.1,0.6,0.1,0.8,0.2c0.2,0.1,0.3,0.1,0.4,0.2C314.9,62.5,314.8,62.8,314.7,63.2L314.7,63.2z M301.1,65.8  c-0.2,0.3-0.4,0.6-0.7,0.8c-0.3,0.2-0.6,0.4-1,0.6c-0.4,0.1-0.8,0.2-1.2,0.2c-0.4,0-0.8-0.1-1.2-0.2c-0.4-0.1-0.7-0.3-1-0.6  c-0.3-0.2-0.5-0.5-0.6-0.8c-0.2-0.3-0.2-0.7-0.2-1c0-0.4,0.1-0.7,0.2-1c0.2-0.3,0.4-0.6,0.7-0.8c0.3-0.2,0.6-0.4,1-0.6  c0.4-0.1,0.8-0.2,1.2-0.2c0.4,0,0.8,0.1,1.2,0.2c0.4,0.1,0.7,0.3,1,0.6c0.3,0.2,0.5,0.5,0.7,0.8s0.2,0.7,0.2,1  C301.4,65.1,301.3,65.5,301.1,65.8L301.1,65.8z M331.1,54.9v10.5h-1.9H329h-0.6V54.9h-2.3v10.5h-2H324h-1.5v-5.3h-2.3v5.3h-1.9  h-0.1H316c0.6-0.5,0.6-0.7,0.9-1.3c0.3-0.6,0.5-1.4,0.5-2.2c0-0.5-0.2-0.9-0.5-1.2c-0.3-0.3-0.7-0.6-1.2-0.8  c-0.5-0.2-1.1-0.3-1.8-0.4c-0.7-0.1-1.4-0.1-2.1-0.1c-0.6,0-1.1,0-1.7,0.1c-0.6,0-1.1,0.1-1.7,0.2c-0.5,0.1-1,0.2-1.5,0.3  c-0.4,0.1-0.8,0.2-1.1,0.3v2c0.1,0.1,0.3,0.2,0.5,0.4c0.2,0.2,0.4,0.3,0.7,0.5c0.2,0.2,0.5,0.4,0.7,0.6c0.3,0.2,0.5,0.4,0.8,0.7  c0.2,0.2,0.1,0,0.3,0.3c0.2,0.2,0.4,0.4,0.6,0.6h-4.6h-0.2h-1.2c0-0.2,0-0.3,0.1-0.5c0-0.2,0-0.4,0-0.5c0-0.7-0.1-0.9-0.4-1.4  c-0.3-0.6-0.6-1.1-1.1-1.5s-1-0.8-1.6-1s-1.3-0.4-2-0.4s-1.4,0.1-2,0.4c-0.6,0.2-1.2,0.6-1.6,1c-0.5,0.4-0.8,0.9-1.1,1.5  c-0.3,0.6-0.4,1.2-0.4,1.8c0,0.3,0,0.2,0,0.6h-1.1H292h-1.9v-5.3h-2.3v5.3h-1.5h-0.2h-1.4c0.1-0.5,0.1-0.6,0.1-1.1  c0-0.4,0-0.3,0-0.7v-3.1h-2.3v3.2c0,0.5,0,0.9-0.1,1.3c0,0.4-0.1,0.8-0.3,1.3c-0.1,0.5-0.3,0.9-0.6,1.3c-0.2,0.4-0.5,0.7-0.8,1  s-0.7,0.5-1.1,0.7s-0.9,0.2-1.4,0.2c-0.2,0-0.5,0-0.7-0.1c-0.2,0-0.5-0.1-0.8-0.2l-0.1,1.8c0.4,0.1,0.7,0.2,1.1,0.3  c0.4,0.1,0.7,0.1,1,0.1c0.7,0,1.4-0.1,2.1-0.4c0.6-0.3,1.2-0.6,1.7-1.1c0.3-0.3,0.6-0.7,0.9-1c0.3-0.4,0.5-0.8,0.7-1.2h1.9h0.2h5.7  h0.2h2.1c0.5,0.6,1.1,1,1.8,1.3c0.7,0.3,1.4,0.5,2.3,0.5c0.8,0,1.6-0.2,2.3-0.5c0.7-0.3,1.3-0.8,1.8-1.3h2.2h0.2h13.4h0.1h5.8h0.1  h4.9h0.2h3.2c0.3,0,0.5-0.1,0.7-0.3c0.2-0.2,0.3-0.4,0.3-0.7V54.9L331.1,54.9L331.1,54.9z"></path>	<path class="st1" d="M354.7,69.4c-0.1-0.1-0.2-0.2-0.4-0.2c-0.1-0.1-0.3-0.1-0.4-0.1c-0.3,0-0.6,0.1-0.8,0.3  c-0.2,0.2-0.3,0.5-0.3,0.8c0,0.2,0,0.3,0.1,0.4s0.1,0.3,0.2,0.4s0.2,0.2,0.4,0.2c0.1,0.1,0.3,0.1,0.4,0.1c0.2,0,0.3,0,0.4-0.1  s0.3-0.1,0.4-0.2s0.2-0.2,0.2-0.4c0.1-0.1,0.1-0.3,0.1-0.4c0-0.2,0-0.3-0.1-0.4C354.9,69.6,354.8,69.5,354.7,69.4L354.7,69.4z"></path>	<path class="st1" d="M357.8,69.4c-0.1-0.1-0.2-0.2-0.4-0.2c-0.1-0.1-0.3-0.1-0.4-0.1c-0.3,0-0.6,0.1-0.8,0.3  c-0.2,0.2-0.3,0.5-0.3,0.8c0,0.2,0,0.3,0.1,0.4s0.1,0.3,0.2,0.4s0.2,0.2,0.4,0.2c0.1,0.1,0.3,0.1,0.4,0.1c0.2,0,0.3,0,0.4-0.1  s0.3-0.1,0.4-0.2s0.2-0.2,0.2-0.4c0.1-0.1,0.1-0.3,0.1-0.4c0-0.2,0-0.3-0.1-0.4C358,69.6,357.9,69.5,357.8,69.4L357.8,69.4z"></path>	<path class="st1" d="M341.6,65.4c0.3-2.6,1.6-3.6,3.8-3.7c0.5,0,0.9,0.1,1.3,0.3c0.4,0.2,0.8,0.4,1.2,0.8c0.3,0.3,0.6,0.8,0.9,1.3  c0.2,0.5,0.4,0.7,0.5,1.4L341.6,65.4L341.6,65.4z M391.8,54.9v10.5h-1.9h-0.2h-1.3c-0.1-0.6-0.2-1.1-0.4-1.6  c-0.2-0.5-0.5-0.9-0.8-1.3s-0.7-0.8-1.2-1.1c-0.5-0.3-0.9-0.6-1.5-0.8c-0.5-0.2-1.1-0.4-1.7-0.5s-1.2-0.2-1.8-0.3  c-0.6,0-1.3,0-1.9,0c-0.6,0.1-1.2,0.2-1.8,0.3l0.1,2.3c0.6-0.2,1.1-0.3,1.7-0.4s1.2-0.1,1.8,0c0.6,0,1.2,0.1,1.8,0.3  c0.6,0.1,1.2,0.4,1.7,0.7c0.5,0.3,0.9,0.7,1.3,1.1s0.5,0.4,0.6,1.2h-11.1H375h-1c0-0.3-0.1-0.6-0.2-1s-0.2-0.8-0.4-1.2  c-0.2-0.4-0.4-0.8-0.8-1.2c-0.3-0.4-0.7-0.7-1.2-1s-1.1-0.5-1.8-0.7c-0.7-0.2-1.5-0.3-2.5-0.3H363c0.5-0.7,0.5-0.7,1.1-1.2  s1.3-0.7,2-1c0.5-0.1,1-0.3,1.4-0.3c0.5-0.1,1-0.1,1.4-0.2c0.5,0,0.9-0.1,1.3-0.1s0.8,0,1.1,0v-2.3c-0.4,0-0.8,0-1.2,0  c-0.4,0-0.9,0-1.4,0.1c-0.5,0-1,0.1-1.6,0.2c-0.5,0.1-1.1,0.2-1.6,0.4c-0.5,0.2-1.1,0.4-1.6,0.7c-0.5,0.3-1,0.6-1.5,1  s-0.9,0.8-1.3,1.3s-0.8,1-1,1.7c-0.1,0.5-0.1,0.8-0.1,1s0.1,0.4,0.2,0.5c0.1,0.2,0.3,0.3,0.5,0.4s0.4,0.1,0.7,0.1l0,0h5.6  c0.7,0,1.2,0.1,1.7,0.2s0.7,0.3,1.1,0.5s0.7,0.4,0.9,0.6c0.2,0.2,0.4,0.5,0.6,0.7c0.1,0.3,0.3,0.5,0.3,0.8c0.1,0.3,0,0.1,0.1,0.3  h-13.2h-0.2h-1.9V60h-2.1v5.3h-1.7h-0.2h-1.2c-0.1-1-0.3-1.5-0.7-2.3c-0.4-0.8-0.8-1.4-1.4-1.9c-0.5-0.5-1.2-0.9-1.8-1.2  c-0.7-0.3-1.4-0.4-2-0.4c-0.7,0-1.4,0.1-2.1,0.4s-1.3,0.7-1.9,1.2c-0.6,0.6-1,1.2-1.4,2.1c-0.4,0.8-0.6,1.6-0.6,2.7  c-0.4,0.2-0.7,0.4-0.9,0.6c-0.3,0.2-0.7,0.7-0.9,1c-0.2,0.3-0.3,0.6-0.4,0.9s-0.1,0.7-0.1,1.1c0,0.6,0.1,1.3,0.4,2s0.6,1.3,1.2,1.9  l1.6-1.2c-0.4-0.4-0.6-0.9-0.8-1.4c-0.2-0.5-0.3-0.9-0.3-1.4c0-0.3,0-0.5,0.1-0.7s0.2-0.4,0.4-0.6c0.2-0.2,0.4-0.3,0.7-0.4  c0.3-0.1,0.6-0.2,1.1-0.2h11.1h0.2h5.7h0.2H375h0.2h14.5h0.2h3.2c0.3,0,0.5-0.1,0.7-0.3c0.2-0.2,0.3-0.4,0.3-0.7V54.7h-2.3V54.9z"></path>	<polygon class="st1" points="398.6,54.9 398.6,67.7 396.3,67.7 396.3,54.9 398.6,54.9  "></polygon>	<polygon class="st0" points="280.5,80.5 276.7,80.5 276.7,75.5 280.5,75.5 280.5,76.5 278.3,76.5 278.3,77.4 280.4,77.4   280.4,78.4 278.3,78.4 278.3,79.5 280.5,79.5  "></polygon>	<polygon class="st0" points="285.4,80.5 281.5,80.5 281.5,75.5 283.1,75.5 283.1,79.3 285.4,79.3  "></polygon>	<polygon class="st0" points="293.8,80.5 292.3,80.5 292.3,78.6 290,78.6 290,80.5 288.5,80.5 288.5,75.5 290,75.5 290,77.3   292.3,77.3 292.3,75.5 293.8,75.5  "></polygon>	<path class="st0" d="M298.2,78.6l-0.7-1.8l-0.7,1.8H298.2L298.2,78.6z M300.6,80.5H299l-0.4-1h-2.2l-0.4,1h-1.6l2.2-5h1.7  L300.6,80.5L300.6,80.5z"></path>	<polygon class="st0" points="306.5,80.5 304.7,80.5 302.7,78.2 302.7,80.5 301.2,80.5 301.2,75.5 302.7,75.5 302.7,77.7   304.6,75.5 306.2,75.5 304.3,77.9  "></polygon>	<polygon class="st0" points="311,80.5 307.2,80.5 307.2,75.5 310.9,75.5 310.9,76.5 308.7,76.5 308.7,77.4 310.8,77.4 310.8,78.4   308.7,78.4 308.7,79.5 311,79.5  "></polygon>	<polygon class="st0" points="315.8,80.5 312,80.5 312,75.5 315.7,75.5 315.7,76.5 313.5,76.5 313.5,77.4 315.6,77.4 315.6,78.4   313.5,78.4 313.5,79.5 315.8,79.5  "></polygon>	<polygon class="st0" points="322.6,80.5 321.1,80.5 321.1,77.6 319.8,79.3 319.6,79.3 318.3,77.6 318.3,80.5 316.8,80.5   316.8,75.5 318.2,75.5 319.7,77.4 321.3,75.5 322.6,75.5  "></polygon>	<polygon class="st0" points="326.1,75.5 328.8,75.5 328.8,76.1 326.8,76.1 326.8,77.5 328.8,77.5 328.8,78.2 326.8,78.2   326.8,80.5 326.1,80.5  "></polygon>	<path class="st0" d="M332,76.1c-0.6,0-1.1,0.2-1.4,0.5c-0.4,0.4-0.6,0.8-0.6,1.4c0,0.5,0.2,1,0.6,1.4s0.8,0.5,1.4,0.5  s1-0.2,1.4-0.6s0.6-0.8,0.6-1.4c0-0.5-0.2-1-0.6-1.4C333.1,76.3,332.6,76.1,332,76.1L332,76.1z M332,75.4c0.8,0,1.4,0.2,2,0.7  c0.5,0.5,0.8,1.1,0.8,1.9s-0.3,1.4-0.8,1.9s-1.2,0.7-2,0.7s-1.4-0.2-1.9-0.7s-0.8-1.1-0.8-1.8c0-0.8,0.3-1.4,0.8-1.9  C330.6,75.6,331.2,75.4,332,75.4L332,75.4z"></path>	<path class="st0" d="M336.6,76.1h-0.2v1.6h0.3c0.4,0,0.6,0,0.8-0.1c0.1-0.1,0.2-0.2,0.3-0.3c0.1-0.1,0.1-0.3,0.1-0.4  c0-0.2,0-0.3-0.1-0.4s-0.2-0.2-0.4-0.3C337.2,76.1,337,76.1,336.6,76.1L336.6,76.1z M335.7,80.5v-5h1.3c0.5,0,0.9,0.1,1.2,0.4  c0.3,0.3,0.5,0.6,0.5,1c0,0.3-0.1,0.6-0.2,0.8c-0.1,0.2-0.4,0.4-0.6,0.5c0.2,0.1,0.3,0.3,0.5,0.4c0.2,0.2,0.4,0.5,0.7,1  c0.2,0.3,0.3,0.5,0.4,0.6l0.3,0.4h-0.9l-0.2-0.3c0,0,0,0,0-0.1l-0.1-0.2l-0.2-0.4l-0.2-0.4c-0.1-0.2-0.3-0.4-0.4-0.5  s-0.2-0.2-0.3-0.3c-0.1-0.1-0.3-0.1-0.5-0.1h-0.2v2.2H335.7L335.7,80.5z"></path>	<path class="st0" d="M346.6,79.4v0.8c-0.5,0.3-1.1,0.4-1.8,0.4c-0.6,0-1-0.1-1.4-0.3c-0.4-0.2-0.7-0.5-0.9-0.9  c-0.2-0.4-0.3-0.8-0.3-1.3c0-0.7,0.3-1.4,0.8-1.9s1.2-0.8,1.9-0.8c0.5,0,1.1,0.1,1.8,0.4v0.8c-0.6-0.3-1.2-0.5-1.7-0.5  c-0.6,0-1.1,0.2-1.4,0.5c-0.4,0.4-0.6,0.8-0.6,1.4s0.2,1,0.6,1.4s0.9,0.5,1.4,0.5C345.4,79.9,346,79.7,346.6,79.4L346.6,79.4z"></path>	<path class="st0" d="M350,76.1c-0.6,0-1.1,0.2-1.4,0.5c-0.4,0.4-0.6,0.8-0.6,1.4c0,0.5,0.2,1,0.6,1.4s0.8,0.5,1.4,0.5  s1-0.2,1.4-0.6s0.6-0.8,0.6-1.4c0-0.5-0.2-1-0.6-1.4C351,76.3,350.5,76.1,350,76.1L350,76.1z M350,75.4c0.8,0,1.4,0.2,2,0.7  c0.5,0.5,0.8,1.1,0.8,1.9s-0.3,1.4-0.8,1.9s-1.2,0.7-2,0.7s-1.4-0.2-1.9-0.7s-0.8-1.1-0.8-1.8c0-0.8,0.3-1.4,0.8-1.9  C348.5,75.6,349.2,75.4,350,75.4L350,75.4z"></path>	<polygon class="st0" points="357.6,75.5 358.3,75.5 358.3,80.5 357.7,80.5 354.3,76.6 354.3,80.5 353.6,80.5 353.6,75.5   354.2,75.5 357.6,79.4  "></polygon>	<path class="st0" d="M360.6,78.4l-0.6-0.3c-0.3-0.2-0.6-0.4-0.7-0.6s-0.2-0.4-0.2-0.7c0-0.4,0.1-0.7,0.4-1c0.3-0.2,0.6-0.4,1.1-0.4  c0.4,0,0.8,0.1,1.2,0.4v0.8c-0.4-0.4-0.8-0.5-1.2-0.5c-0.2,0-0.4,0.1-0.6,0.2s-0.2,0.2-0.2,0.4c0,0.2,0.1,0.3,0.2,0.4  s0.3,0.3,0.5,0.4l0.6,0.3c0.6,0.4,0.9,0.8,0.9,1.4c0,0.4-0.1,0.7-0.4,1s-0.6,0.4-1.1,0.4s-1-0.2-1.4-0.5v-0.9  c0.4,0.5,0.8,0.7,1.4,0.7c0.2,0,0.4-0.1,0.6-0.2s0.2-0.3,0.2-0.5C361.3,79,361.1,78.7,360.6,78.4L360.6,78.4z"></path>	<polygon class="st0" points="362.4,75.5 366.6,75.5 366.6,76.1 364.8,76.1 364.8,80.5 364.1,80.5 364.1,76.1 362.4,76.1  "></polygon>	<path class="st0" d="M368.2,76.1H368v1.6h0.3c0.4,0,0.6,0,0.8-0.1c0.1-0.1,0.2-0.2,0.3-0.3c0.1-0.1,0.1-0.3,0.1-0.4  c0-0.2,0-0.3-0.1-0.4s-0.2-0.2-0.4-0.3S368.6,76.1,368.2,76.1L368.2,76.1z M367.3,80.5v-5h1.3c0.5,0,0.9,0.1,1.2,0.4  c0.3,0.3,0.5,0.6,0.5,1c0,0.3-0.1,0.6-0.2,0.8c-0.1,0.2-0.4,0.4-0.6,0.5c0.2,0.1,0.3,0.3,0.5,0.4c0.2,0.2,0.4,0.5,0.7,1  c0.2,0.3,0.3,0.5,0.4,0.6l0.3,0.4h-1.1l-0.2-0.3c0,0,0,0,0-0.1L370,80l-0.2-0.4l-0.2-0.4c-0.1-0.2-0.3-0.4-0.4-0.5  s-0.2-0.2-0.3-0.3c-0.1-0.1-0.3-0.1-0.5-0.1h-0.2v2.2H367.3L367.3,80.5z"></path>	<path class="st0" d="M375.1,75.5h0.7v2.9c0,0.4,0,0.7-0.1,0.9c-0.1,0.2-0.1,0.4-0.2,0.5s-0.2,0.2-0.3,0.4c-0.4,0.3-0.9,0.5-1.6,0.5  s-1.2-0.2-1.6-0.5c-0.1-0.1-0.2-0.2-0.3-0.4c-0.1-0.1-0.2-0.3-0.2-0.5c-0.1-0.2-0.1-0.5-0.1-0.9v-2.9h0.7v2.9c0,0.5,0.1,0.8,0.2,1  s0.3,0.3,0.5,0.4s0.5,0.2,0.8,0.2c0.4,0,0.8-0.1,1.1-0.3c0.1-0.1,0.2-0.3,0.3-0.4c0.1-0.2,0.1-0.4,0.1-0.8V75.5L375.1,75.5z"></path>	<path class="st0" d="M381.2,79.4v0.8c-0.5,0.3-1.1,0.4-1.8,0.4c-0.6,0-1-0.1-1.4-0.3c-0.4-0.2-0.7-0.5-0.9-0.9  c-0.2-0.4-0.3-0.8-0.3-1.3c0-0.7,0.3-1.4,0.8-1.9s1.2-0.8,1.9-0.8c0.5,0,1.1,0.1,1.8,0.4v0.8c-0.6-0.3-1.2-0.5-1.7-0.5  c-0.6,0-1.1,0.2-1.4,0.5c-0.4,0.4-0.6,0.8-0.6,1.4s0.2,1,0.6,1.4s0.9,0.5,1.4,0.5C380,79.9,380.6,79.7,381.2,79.4L381.2,79.4z"></path>	<polygon class="st0" points="381.6,75.5 385.9,75.5 385.9,76.1 384.1,76.1 384.1,80.5 383.4,80.5 383.4,76.1 381.6,76.1  "></polygon>	<polygon class="st0" points="386.6,75.5 387.3,75.5 387.3,80.5 386.6,80.5  "></polygon>	<path class="st0" d="M390.9,76.1c-0.6,0-1.1,0.2-1.4,0.5c-0.4,0.4-0.6,0.8-0.6,1.4c0,0.5,0.2,1,0.6,1.4s0.8,0.5,1.4,0.5  s1-0.2,1.4-0.6s0.6-0.8,0.6-1.4c0-0.5-0.2-1-0.6-1.4C392,76.3,391.5,76.1,390.9,76.1L390.9,76.1z M390.9,75.4c0.8,0,1.4,0.2,2,0.7  c0.5,0.5,0.8,1.1,0.8,1.9s-0.3,1.4-0.8,1.9s-1.2,0.7-2,0.7s-1.4-0.2-1.9-0.7s-0.8-1.1-0.8-1.8c0-0.8,0.3-1.4,0.8-1.9  C389.5,75.6,390.1,75.4,390.9,75.4L390.9,75.4z"></path>	<polygon class="st0" points="398.6,75.5 399.3,75.5 399.3,80.5 398.6,80.5 395.2,76.6 395.2,80.5 394.6,80.5 394.6,75.5   395.1,75.5 398.6,79.4  "></polygon></g><g>	<g>		<g>			<path class="st2" d="M667.5,159.2c4.2,0,9.3-3.4,11.4-7.2l32.2-69.9h2.5l32.2,69.9c1.7,3.8,6.8,7.2,11.4,7.2H772    c4.2,0,6.4-3.4,4.7-7.2l-42.8-92.8c-1.7-3.8-6.8-7.2-11.4-7.2h-20.2c-4.2,0-9.3,3.4-11.4,7.2L647.7,152c-1.7,3.8,0.4,7.2,4.7,7.2    H667.5"></path>			<path class="st3" d="M415,34.2h15.3c5.5,0,9.3-3.8,9.3-9.7V9.7c0-5.9-3.8-9.7-9.7-9.7h-15.3c-5.1,0-8.9,3.8-8.9,9.7V25    C405.7,30.4,409.5,34.2,415,34.2"></path>			<path class="st3" d="M146.3,11.8h-14.4c-4.2,0-7.6,3.4-7.6,7.6v130.1c0,15.7-3.8,33.9-22.5,33.9H83.6V82.1c0-4.2-3.4-7.6-7.6-7.6    H61.6c-4.2,0-7.6,3.4-7.6,7.6v101.3H16.7c-4.2,0-9.3,3.4-11.4,7.2l-4.7,9.7c-1.7,3.8,0.4,7.2,4.7,7.2h96.6    c38.6,0,52.1-30.1,52.1-58.1v-130C154,15.1,150.6,11.8,146.3,11.8"></path>			<path class="st3" d="M799.8,200.8l-4.7-9.7c-1.7-3.8-6.8-7.2-11.4-7.2H629.4v-25.8c0-4.2-3.4-7.6-7.6-7.6h-14.4    c-4.2,0-7.6,3.4-7.6,7.6v25.8H568c-18.6,0-22.5-18.6-22.5-33.9V19.8c0-4.2-3.4-7.6-7.6-7.6h-14.4c-4.2,0-7.6,3.4-7.6,7.6v130.1    c0,28,13.6,58.1,52.1,58.1h227.1C799.3,208,801.5,204.6,799.8,200.8"></path>			<path class="st3" d="M422.6,52c-44.1,0-59.7,30.1-59.7,58.5v39c0,13.1,3,24.6,9.3,33.9h-65.3v-72.9c0-28.4-15.7-58.5-59.7-58.5    s-59.7,30.1-59.7,58.5v39c0,16.5,5.1,30.5,14.8,41.1c10.6,11.4,25.8,17.4,44.9,17.4h29.7v10.2c0,25.4-7.6,34.7-29.7,34.7h-11.4    c-4.2,0-7.6,3.4-7.6,7.6v8.9c0,4.2,3.4,7.6,7.6,7.6h11c19.1,0,34.7-5.9,45.3-17.4c9.7-10.2,14.8-24.6,14.8-41.1v-11H423    c19.1,0,34.3-5.9,44.9-17.4c9.7-10.2,14.8-24.6,14.8-41.1v-39C482.4,82.5,466.7,52,422.6,52 M246.8,183.8    c-22,0-29.7-9.3-29.7-34.7v-37.7c0-25.4,8.1-34.7,29.7-35.2c21.6,0,29.7,9.7,29.7,35.2v72.5L246.8,183.8 M452.3,149.1    c0,25.4-7.6,34.7-29.7,34.7c-22,0-29.7-9.3-29.7-34.7v-37.7c0-25.4,8.1-34.7,29.7-35.2c21.6,0,29.7,9.7,29.7,35.2V149.1z"></path>			<path class="st3" d="M364.1,287.6c0-5.1,4.2-9.3,11.4-9.3c5.9,0,10.2,3.4,13.6,5.1c2.1,1.3,4.7,1.7,5.9-1.3l2.1-3.4    c1.3-2.1,0.8-4.2-1.3-5.9c-3.4-2.1-10.6-6.8-19.9-6.8c-14.4,0-25.4,9.3-25.4,22.5c0,23.3,35.6,20.3,35.6,34.3    c0,5.1-4.2,9.3-11.4,9.3c-7.6,0-13.1-4.7-15.3-6.4c-2.5-1.3-4.7-1.3-6.4,0.8l-2.5,3.4c-2.1,3-1.3,4.7,0.4,5.9    c3.8,3,12.7,8.5,23.3,8.5c16.1,0,25.4-11,25.4-22.9C399.7,297.8,364.1,301.6,364.1,287.6"></path>			<path class="st3" d="M673.5,330.8v-59.3c0-2.1-1.7-3.8-3.8-3.8h-5.9c-2.1,0-3.8,1.7-3.8,3.8v67.4c0,2.1,1.7,3.8,3.8,3.8h39    c2.1,0,3.8-1.7,3.8-3.8v-4.2c0-2.1-1.7-3.8-3.8-3.8h-29.3V330.8z"></path>			<path class="st3" d="M736.6,319.4c2.1,0,4.7-1.7,5.5-3.4l15.7-33.5h1.3l15.7,33.5c0.8,1.7,3.4,3.4,5.5,3.4h7.2    c2.1,0,3-1.7,2.1-3.4l-21.2-44.9c-0.8-1.7-3.4-3.4-5.5-3.4h-9.7c-2.1,0-4.7,1.7-5.5,3.4L726.9,316c-0.8,1.7,0,3.4,2.1,3.4H736.6z    "></path>			<path class="st3" d="M716.3,339.3c-0.8,1.7,0,3.4,2.1,3.4h79.7c2.1,0,3-1.7,2.1-3.4l-2.1-4.7c-0.8-2.1-3.4-3.4-5.5-3.4H724    c-2.1,0-4.7,1.7-5.5,3.4L716.3,339.3z"></path>			<path class="st3" d="M431.5,319.4c2.1,0,4.7-1.7,5.5-3.4l15.7-33.5h1.3l15.7,33.5c0.8,1.7,3.4,3.4,5.5,3.4h7.2    c2.1,0,3-1.7,2.1-3.4l-21.2-44.9c-0.8-1.7-3.4-3.4-5.5-3.4h-9.7c-2.1,0-4.7,1.7-5.5,3.4L421.8,316c-0.8,1.7,0,3.4,2.1,3.4H431.5z    "></path>			<path class="st3" d="M411.2,339.3c-0.8,1.7,0,3.4,2.1,3.4H493c2.1,0,3-1.7,2.1-3.4l-2.1-4.7c-0.8-2.1-3.4-3.4-5.5-3.4h-68.6    c-2.1,0-4.7,1.7-5.5,3.4L411.2,339.3z"></path>			<path class="st3" d="M561.2,267.7h-6.8c-2.1,0-4.2,1.7-5.1,3.4l-19.9,54.2h-1.3l-19.9-54.2c-0.8-2.1-3-3.4-5.1-3.4h-6.8    c-2.1,0-3.4,1.7-2.5,3.4l25,67.8c0.8,2.1,3,3.4,5.1,3.4h9.3c2.1,0,4.2-1.7,5.1-3.4l25-67.8C564.2,269.4,563.3,267.7,561.2,267.7"></path>			<path class="st3" d="M607.8,265.6c-22,0-30.1,15.3-30.1,29.2v20.3c0,8.1,2.5,15.3,7.2,20.3c5.1,5.5,13.1,8.5,22.5,8.5    c9.7,0,17.4-3,22.5-8.5c4.7-5.1,7.2-12.3,7.2-20.3v-20.3C637.9,280.8,629.8,266,607.8,265.6 M624.3,315.2    c0,13.1-4.2,17.8-16.5,17.8s-16.5-4.7-16.5-17.8v-19.9c0-13.1,4.7-17.8,16.5-17.8s16.5,5,16.5,17.8V315.2z"></path>		</g>	</g></g></svg>